G04 ================== begin FILE IDENTIFICATION RECORD ==================*
G04 Layout Name:  PCAD - VIBRATION SENSOR.brd*
G04 Film Name:    BOTTOM*
G04 File Format:  Gerber RS274X*
G04 File Origin:  Cadence Allegro 17.2-S025*
G04 Origin Date:  Sat Jan 11 15:50:56 2025*
G04 *
G04 Layer:  ETCH/BOTTOM*
G04 Layer:  PIN/BOTTOM*
G04 Layer:  VIA CLASS/BOTTOM*
G04 *
G04 Offset:    (0.00 0.00)*
G04 Mirror:    No*
G04 Mode:      Positive*
G04 Rotation:  0*
G04 FullContactRelief:  No*
G04 UndefLineWidth:     10.00*
G04 ================== end FILE IDENTIFICATION RECORD ====================*
%FSLAX25Y25*MOIN*%
%IR0*IPPOS*OFA0.00000B0.00000*MIA0B0*SFA1.00000B1.00000*%
%ADD13C,.024*%
%ADD11C,.06*%
%ADD10C,.025*%
%ADD12C,.065*%
%ADD14R,.06X.06*%
%ADD16O,.06X.04*%
%ADD15R,.06X.04*%
%ADD17C,.012*%
%ADD18C,.043*%
G75*
%LPD*%
G75*
G54D10*
X14100Y14100D03*
Y261500D03*
X261500Y14100D03*
G54D11*
X26400Y105300D03*
Y115300D03*
X110000Y80000D03*
Y90000D03*
Y100000D03*
Y110000D03*
Y120000D03*
Y130000D03*
Y140000D03*
X130000Y190000D03*
X120000D03*
X140000Y90000D03*
Y80000D03*
Y120000D03*
Y110000D03*
Y100000D03*
Y150000D03*
Y140000D03*
Y130000D03*
X190000Y180000D03*
Y190000D03*
X236100Y151600D03*
Y161600D03*
G54D12*
X50000Y60000D03*
Y120000D03*
Y100000D03*
Y160000D03*
X80000Y80000D03*
Y90000D03*
X105000Y225000D03*
X160000Y120000D03*
X145000Y225000D03*
X200000Y120000D03*
G54D13*
X100000Y145000D03*
Y125000D03*
X125000Y150000D03*
X130000Y145000D03*
X125000Y162500D03*
X130000Y167500D03*
X150000Y115000D03*
Y127000D03*
X200000Y120000D03*
G54D14*
X110000Y150000D03*
G54D15*
X222500Y115000D03*
G54D16*
Y120000D03*
Y125000D03*
G54D17*
G01X26400Y115300D02*
Y136400D01*
X50000Y160000D01*
G01Y120000D02*
Y100000D01*
G01X110000Y140000D02*
X76742D01*
X50000Y160000D01*
G01X80000Y90000D02*
Y119635D01*
X95000Y130000D01*
X110000D01*
G01X125000Y150000D02*
Y145000D01*
X110000Y130000D01*
G01X140000Y140000D02*
X120000Y160000D01*
Y190000D01*
G01X140000Y130000D02*
X130000Y140000D01*
Y145000D01*
G01X125000Y162500D02*
X140000D01*
G01X130000Y190000D02*
Y167500D01*
G01X120000Y190000D02*
X105000Y205000D01*
Y225000D01*
G01X140000Y120000D02*
X160000D01*
G01X140000Y150000D02*
Y162500D01*
G01D02*
Y190000D01*
G01X145000D02*
X190000D01*
G01X145000Y225000D02*
Y190000D01*
G01X140000D02*
X145000D01*
G01X135200D02*
X140000D01*
G01X200000Y120000D02*
X222500D01*
G01Y115000D02*
X236100D01*
Y151600D01*
G54D18*
G01X50000Y60000D02*
X26400Y83600D01*
Y105300D01*
G01X50000Y60000D02*
X80000Y80000D01*
G01X110000D02*
X100000D01*
G01D02*
X80000D01*
G01X100000Y125000D02*
Y80000D01*
G01Y145000D02*
Y150000D01*
X110000D01*
G01X140000Y80000D02*
X110000D01*
G01X140000Y100000D02*
Y90000D01*
G01D02*
Y80000D01*
G01X150000Y115000D02*
Y110000D01*
X140000Y100000D01*
G01X222500Y128200D02*
X218200Y132500D01*
X155500D01*
X150000Y127000D01*
G01X190000Y180000D02*
X204100D01*
X222500Y161600D01*
G01D02*
Y128200D01*
G01D02*
Y125000D01*
G01Y161600D02*
X236100D01*
M02*
