G04 ================== begin FILE IDENTIFICATION RECORD ==================*
G04 Layout Name:  PCAD - VIBRATION SENSOR.brd*
G04 Film Name:    FABRICATION*
G04 File Format:  Gerber RS274X*
G04 File Origin:  Cadence Allegro 17.2-S025*
G04 Origin Date:  Mon Jan 13 15:26:00 2025*
G04 *
G04 Layer:  ROUTE KEEPOUT/ALL*
G04 Layer:  MANUFACTURING/PHOTOPLOT_OUTLINE*
G04 Layer:  MANUFACTURING/NO_GLOSS_ALL*
G04 Layer:  MANUFACTURING/NO_GLOSS_TOP*
G04 Layer:  MANUFACTURING/NO_GLOSS_BOTTOM*
G04 Layer:  MANUFACTURING/NO_GLOSS_INTERNAL*
G04 Layer:  MANUFACTURING/NCDRILL_LEGEND*
G04 Layer:  MANUFACTURING/NCDRILL_FIGURE*
G04 Layer:  MANUFACTURING/PROBE_TOP*
G04 Layer:  MANUFACTURING/PROBE_BOTTOM*
G04 Layer:  MANUFACTURING/AUTOSILK_TOP*
G04 Layer:  MANUFACTURING/AUTOSILK_BOTTOM*
G04 Layer:  MANUFACTURING/NO_PROBE_TOP*
G04 Layer:  MANUFACTURING/NO_PROBE_BOTTOM*
G04 Layer:  MANUFACTURING/XSECTION_CHART*
G04 Layer:  MANUFACTURING/NCLEGEND-1-2*
G04 Layer:  BOARD GEOMETRY/DIMENSION*
G04 Layer:  BOARD GEOMETRY/DESIGN_OUTLINE*
G04 *
G04 Offset:    (0.00 0.00)*
G04 Mirror:    No*
G04 Mode:      Positive*
G04 Rotation:  0*
G04 FullContactRelief:  No*
G04 UndefLineWidth:     0.00*
G04 ================== end FILE IDENTIFICATION RECORD ====================*
%FSLAX25Y25*MOIN*%
%IR0*IPPOS*OFA0.00000B0.00000*MIA0B0*SFA1.00000B1.00000*%
%AMMACRO14*
1,1,0.0,.025,0.0*
20,1,0.0,.025,0.0,.02462,-.004341,0.0*
1,1,0.0,.02462,-.004341*
20,1,0.0,.02462,-.004341,.023492,-.008551,0.0*
1,1,0.0,.023492,-.008551*
20,1,0.0,.023492,-.008551,.021651,-.0125,0.0*
1,1,0.0,.021651,-.0125*
20,1,0.0,.021651,-.0125,.019151,-.01607,0.0*
1,1,0.0,.019151,-.01607*
20,1,0.0,.019151,-.01607,.01607,-.019151,0.0*
1,1,0.0,.01607,-.019151*
20,1,0.0,.01607,-.019151,.0125,-.021651,0.0*
1,1,0.0,.0125,-.021651*
20,1,0.0,.0125,-.021651,.008551,-.023492,0.0*
1,1,0.0,.008551,-.023492*
20,1,0.0,.008551,-.023492,.004341,-.02462,0.0*
1,1,0.0,.004341,-.02462*
20,1,0.0,.004341,-.02462,0.0,-.025,0.0*
1,1,0.0,0.0,-.025*
20,1,0.0,0.0,-.025,-.004341,-.02462,0.0*
1,1,0.0,-.004341,-.02462*
20,1,0.0,-.004341,-.02462,-.008551,-.023492,0.0*
1,1,0.0,-.008551,-.023492*
20,1,0.0,-.008551,-.023492,-.0125,-.021651,0.0*
1,1,0.0,-.0125,-.021651*
20,1,0.0,-.0125,-.021651,-.01607,-.019151,0.0*
1,1,0.0,-.01607,-.019151*
20,1,0.0,-.01607,-.019151,-.019151,-.01607,0.0*
1,1,0.0,-.019151,-.01607*
20,1,0.0,-.019151,-.01607,-.021651,-.0125,0.0*
1,1,0.0,-.021651,-.0125*
20,1,0.0,-.021651,-.0125,-.023492,-.008551,0.0*
1,1,0.0,-.023492,-.008551*
20,1,0.0,-.023492,-.008551,-.02462,-.004341,0.0*
1,1,0.0,-.02462,-.004341*
20,1,0.0,-.02462,-.004341,-.025,0.0,0.0*
1,1,0.0,-.025,0.0*
20,1,0.0,-.025,0.0,-.02462,.004341,0.0*
1,1,0.0,-.02462,.004341*
20,1,0.0,-.02462,.004341,-.023492,.008551,0.0*
1,1,0.0,-.023492,.008551*
20,1,0.0,-.023492,.008551,-.021651,.0125,0.0*
1,1,0.0,-.021651,.0125*
20,1,0.0,-.021651,.0125,-.019151,.01607,0.0*
1,1,0.0,-.019151,.01607*
20,1,0.0,-.019151,.01607,-.01607,.019151,0.0*
1,1,0.0,-.01607,.019151*
20,1,0.0,-.01607,.019151,-.0125,.021651,0.0*
1,1,0.0,-.0125,.021651*
20,1,0.0,-.0125,.021651,-.008551,.023492,0.0*
1,1,0.0,-.008551,.023492*
20,1,0.0,-.008551,.023492,-.004341,.02462,0.0*
1,1,0.0,-.004341,.02462*
20,1,0.0,-.004341,.02462,0.0,.025,0.0*
1,1,0.0,0.0,.025*
20,1,0.0,0.0,.025,.004341,.02462,0.0*
1,1,0.0,.004341,.02462*
20,1,0.0,.004341,.02462,.008551,.023492,0.0*
1,1,0.0,.008551,.023492*
20,1,0.0,.008551,.023492,.0125,.021651,0.0*
1,1,0.0,.0125,.021651*
20,1,0.0,.0125,.021651,.01607,.019151,0.0*
1,1,0.0,.01607,.019151*
20,1,0.0,.01607,.019151,.019151,.01607,0.0*
1,1,0.0,.019151,.01607*
20,1,0.0,.019151,.01607,.021651,.0125,0.0*
1,1,0.0,.021651,.0125*
20,1,0.0,.021651,.0125,.023492,.008551,0.0*
1,1,0.0,.023492,.008551*
20,1,0.0,.023492,.008551,.02462,.004341,0.0*
1,1,0.0,.02462,.004341*
20,1,0.0,.02462,.004341,.025,0.0,0.0*
1,1,0.0,.025,0.0*
1,1,0.0,.0125,0.0*
20,1,0.0,.0125,0.0,-.0125,0.0,0.0*
1,1,0.0,-.0125,0.0*
1,1,0.0,0.0,.0125*
20,1,0.0,0.0,.0125,0.0,-.0125,0.0*
1,1,0.0,0.0,-.0125*
%
%ADD14MACRO14*%
%AMMACRO13*
1,1,0.0,.0155,0.0*
20,1,0.0,.0155,0.0,.015265,-.002692,0.0*
1,1,0.0,.015265,-.002692*
20,1,0.0,.015265,-.002692,.014565,-.005301,0.0*
1,1,0.0,.014565,-.005301*
20,1,0.0,.014565,-.005301,.013423,-.00775,0.0*
1,1,0.0,.013423,-.00775*
20,1,0.0,.013423,-.00775,.011874,-.009963,0.0*
1,1,0.0,.011874,-.009963*
20,1,0.0,.011874,-.009963,.009963,-.011874,0.0*
1,1,0.0,.009963,-.011874*
20,1,0.0,.009963,-.011874,.00775,-.013423,0.0*
1,1,0.0,.00775,-.013423*
20,1,0.0,.00775,-.013423,.005301,-.014565,0.0*
1,1,0.0,.005301,-.014565*
20,1,0.0,.005301,-.014565,.002692,-.015265,0.0*
1,1,0.0,.002692,-.015265*
20,1,0.0,.002692,-.015265,0.0,-.0155,0.0*
1,1,0.0,0.0,-.0155*
20,1,0.0,0.0,-.0155,-.002692,-.015265,0.0*
1,1,0.0,-.002692,-.015265*
20,1,0.0,-.002692,-.015265,-.005301,-.014565,0.0*
1,1,0.0,-.005301,-.014565*
20,1,0.0,-.005301,-.014565,-.00775,-.013423,0.0*
1,1,0.0,-.00775,-.013423*
20,1,0.0,-.00775,-.013423,-.009963,-.011874,0.0*
1,1,0.0,-.009963,-.011874*
20,1,0.0,-.009963,-.011874,-.011874,-.009963,0.0*
1,1,0.0,-.011874,-.009963*
20,1,0.0,-.011874,-.009963,-.013423,-.00775,0.0*
1,1,0.0,-.013423,-.00775*
20,1,0.0,-.013423,-.00775,-.014565,-.005301,0.0*
1,1,0.0,-.014565,-.005301*
20,1,0.0,-.014565,-.005301,-.015265,-.002692,0.0*
1,1,0.0,-.015265,-.002692*
20,1,0.0,-.015265,-.002692,-.0155,0.0,0.0*
1,1,0.0,-.0155,0.0*
20,1,0.0,-.0155,0.0,-.015265,.002692,0.0*
1,1,0.0,-.015265,.002692*
20,1,0.0,-.015265,.002692,-.014565,.005301,0.0*
1,1,0.0,-.014565,.005301*
20,1,0.0,-.014565,.005301,-.013423,.00775,0.0*
1,1,0.0,-.013423,.00775*
20,1,0.0,-.013423,.00775,-.011874,.009963,0.0*
1,1,0.0,-.011874,.009963*
20,1,0.0,-.011874,.009963,-.009963,.011874,0.0*
1,1,0.0,-.009963,.011874*
20,1,0.0,-.009963,.011874,-.00775,.013423,0.0*
1,1,0.0,-.00775,.013423*
20,1,0.0,-.00775,.013423,-.005301,.014565,0.0*
1,1,0.0,-.005301,.014565*
20,1,0.0,-.005301,.014565,-.002692,.015265,0.0*
1,1,0.0,-.002692,.015265*
20,1,0.0,-.002692,.015265,0.0,.0155,0.0*
1,1,0.0,0.0,.0155*
20,1,0.0,0.0,.0155,.002692,.015265,0.0*
1,1,0.0,.002692,.015265*
20,1,0.0,.002692,.015265,.005301,.014565,0.0*
1,1,0.0,.005301,.014565*
20,1,0.0,.005301,.014565,.00775,.013423,0.0*
1,1,0.0,.00775,.013423*
20,1,0.0,.00775,.013423,.009963,.011874,0.0*
1,1,0.0,.009963,.011874*
20,1,0.0,.009963,.011874,.011874,.009963,0.0*
1,1,0.0,.011874,.009963*
20,1,0.0,.011874,.009963,.013423,.00775,0.0*
1,1,0.0,.013423,.00775*
20,1,0.0,.013423,.00775,.014565,.005301,0.0*
1,1,0.0,.014565,.005301*
20,1,0.0,.014565,.005301,.015265,.002692,0.0*
1,1,0.0,.015265,.002692*
20,1,0.0,.015265,.002692,.0155,0.0,0.0*
1,1,0.0,.0155,0.0*
1,1,0.0,-.00646,-.00775*
20,1,0.0,-.00646,-.00775,0.0,.00775,0.0*
1,1,0.0,0.0,.00775*
20,1,0.0,0.0,.00775,.00646,-.00775,0.0*
1,1,0.0,.00646,-.00775*
1,1,0.0,.00413,-.00233*
20,1,0.0,.00413,-.00233,-.00413,-.00233,0.0*
1,1,0.0,-.00413,-.00233*
%
%ADD13MACRO13*%
%AMMACRO11*
1,1,0.0,.025,0.0*
20,1,0.0,.025,0.0,.0125,.021651,0.0*
1,1,0.0,.0125,.021651*
20,1,0.0,.0125,.021651,-.0125,.021651,0.0*
1,1,0.0,-.0125,.021651*
20,1,0.0,-.0125,.021651,-.025,0.0,0.0*
1,1,0.0,-.025,0.0*
20,1,0.0,-.025,0.0,-.0125,-.021651,0.0*
1,1,0.0,-.0125,-.021651*
20,1,0.0,-.0125,-.021651,.0125,-.021651,0.0*
1,1,0.0,.0125,-.021651*
20,1,0.0,.0125,-.021651,.025,0.0,0.0*
1,1,0.0,.025,0.0*
%
%ADD11MACRO11*%
%AMMACRO19*
1,1,0.0,0.0,.02*
20,1,0.0,0.0,.02,.02,-.02,0.0*
1,1,0.0,.02,-.02*
20,1,0.0,.02,-.02,-.02,-.02,0.0*
1,1,0.0,-.02,-.02*
20,1,0.0,-.02,-.02,0.0,.02,0.0*
1,1,0.0,0.0,.02*
%
%ADD19MACRO19*%
%AMMACRO12*
1,1,0.0,-.02,.0125*
20,1,0.0,-.02,.0125,-.019696,.015973,0.0*
1,1,0.0,-.019696,.015973*
20,1,0.0,-.019696,.015973,-.018794,.01934,0.0*
1,1,0.0,-.018794,.01934*
20,1,0.0,-.018794,.01934,-.017321,.0225,0.0*
1,1,0.0,-.017321,.0225*
20,1,0.0,-.017321,.0225,-.015321,.025356,0.0*
1,1,0.0,-.015321,.025356*
20,1,0.0,-.015321,.025356,-.012856,.027821,0.0*
1,1,0.0,-.012856,.027821*
20,1,0.0,-.012856,.027821,-.01,.029821,0.0*
1,1,0.0,-.01,.029821*
20,1,0.0,-.01,.029821,-.00684,.031294,0.0*
1,1,0.0,-.00684,.031294*
20,1,0.0,-.00684,.031294,-.003473,.032196,0.0*
1,1,0.0,-.003473,.032196*
20,1,0.0,-.003473,.032196,0.0,.0325,0.0*
1,1,0.0,0.0,.0325*
20,1,0.0,0.0,.0325,.003473,.032196,0.0*
1,1,0.0,.003473,.032196*
20,1,0.0,.003473,.032196,.00684,.031294,0.0*
1,1,0.0,.00684,.031294*
20,1,0.0,.00684,.031294,.01,.029821,0.0*
1,1,0.0,.01,.029821*
20,1,0.0,.01,.029821,.012856,.027821,0.0*
1,1,0.0,.012856,.027821*
20,1,0.0,.012856,.027821,.015321,.025356,0.0*
1,1,0.0,.015321,.025356*
20,1,0.0,.015321,.025356,.017321,.0225,0.0*
1,1,0.0,.017321,.0225*
20,1,0.0,.017321,.0225,.018794,.01934,0.0*
1,1,0.0,.018794,.01934*
20,1,0.0,.018794,.01934,.019696,.015973,0.0*
1,1,0.0,.019696,.015973*
20,1,0.0,.019696,.015973,.02,.0125,0.0*
1,1,0.0,.02,.0125*
20,1,0.0,.02,.0125,.02,-.0125,0.0*
1,1,0.0,.02,-.0125*
20,1,0.0,.02,-.0125,.019696,-.015973,0.0*
1,1,0.0,.019696,-.015973*
20,1,0.0,.019696,-.015973,.018794,-.01934,0.0*
1,1,0.0,.018794,-.01934*
20,1,0.0,.018794,-.01934,.017321,-.0225,0.0*
1,1,0.0,.017321,-.0225*
20,1,0.0,.017321,-.0225,.015321,-.025356,0.0*
1,1,0.0,.015321,-.025356*
20,1,0.0,.015321,-.025356,.012856,-.027821,0.0*
1,1,0.0,.012856,-.027821*
20,1,0.0,.012856,-.027821,.01,-.029821,0.0*
1,1,0.0,.01,-.029821*
20,1,0.0,.01,-.029821,.00684,-.031294,0.0*
1,1,0.0,.00684,-.031294*
20,1,0.0,.00684,-.031294,.003473,-.032196,0.0*
1,1,0.0,.003473,-.032196*
20,1,0.0,.003473,-.032196,0.0,-.0325,0.0*
1,1,0.0,0.0,-.0325*
20,1,0.0,0.0,-.0325,-.003473,-.032196,0.0*
1,1,0.0,-.003473,-.032196*
20,1,0.0,-.003473,-.032196,-.00684,-.031294,0.0*
1,1,0.0,-.00684,-.031294*
20,1,0.0,-.00684,-.031294,-.01,-.029821,0.0*
1,1,0.0,-.01,-.029821*
20,1,0.0,-.01,-.029821,-.012856,-.027821,0.0*
1,1,0.0,-.012856,-.027821*
20,1,0.0,-.012856,-.027821,-.015321,-.025356,0.0*
1,1,0.0,-.015321,-.025356*
20,1,0.0,-.015321,-.025356,-.017321,-.0225,0.0*
1,1,0.0,-.017321,-.0225*
20,1,0.0,-.017321,-.0225,-.018794,-.01934,0.0*
1,1,0.0,-.018794,-.01934*
20,1,0.0,-.018794,-.01934,-.019696,-.015973,0.0*
1,1,0.0,-.019696,-.015973*
20,1,0.0,-.019696,-.015973,-.02,-.0125,0.0*
1,1,0.0,-.02,-.0125*
20,1,0.0,-.02,-.0125,-.02,.0125,0.0*
1,1,0.0,-.02,.0125*
%
%ADD12MACRO12*%
%AMMACRO18*
1,1,0.0,0.0,.012*
20,1,0.0,0.0,.012,.012,-.012,0.0*
1,1,0.0,.012,-.012*
20,1,0.0,.012,-.012,-.012,-.012,0.0*
1,1,0.0,-.012,-.012*
20,1,0.0,-.012,-.012,0.0,.012,0.0*
1,1,0.0,0.0,.012*
%
%ADD18MACRO18*%
%AMMACRO16*
1,1,0.0,0.0,.03*
20,1,0.0,0.0,.03,.03,-.03,0.0*
1,1,0.0,.03,-.03*
20,1,0.0,.03,-.03,-.03,-.03,0.0*
1,1,0.0,-.03,-.03*
20,1,0.0,-.03,-.03,0.0,.03,0.0*
1,1,0.0,0.0,.03*
%
%ADD16MACRO16*%
%AMMACRO15*
1,1,0.0,0.0,.0125*
20,1,0.0,0.0,.0125,.0125,-.0125,0.0*
1,1,0.0,.0125,-.0125*
20,1,0.0,.0125,-.0125,-.0125,-.0125,0.0*
1,1,0.0,-.0125,-.0125*
20,1,0.0,-.0125,-.0125,0.0,.0125,0.0*
1,1,0.0,0.0,.0125*
%
%ADD15MACRO15*%
%AMMACRO17*
1,1,0.0,0.0,.0325*
20,1,0.0,0.0,.0325,.0325,-.0325,0.0*
1,1,0.0,.0325,-.0325*
20,1,0.0,.0325,-.0325,-.0325,-.0325,0.0*
1,1,0.0,-.0325,-.0325*
20,1,0.0,-.0325,-.0325,0.0,.0325,0.0*
1,1,0.0,0.0,.0325*
%
%ADD17MACRO17*%
%AMMACRO10*
1,1,0.0,-.02625,-.0375*
20,1,0.0,-.02625,-.0375,.02625,.0375,0.0*
1,1,0.0,.02625,.0375*
1,1,0.0,-.02625,.0375*
20,1,0.0,-.02625,.0375,.02625,-.0375,0.0*
1,1,0.0,.02625,-.0375*
%
%ADD10MACRO10*%
G75*
%LPD*%
G75*
G36*
G01X-144800Y241279D02*
Y218239D01*
X-142300D01*
Y64639D01*
X-144800D01*
Y41599D01*
X-129800D01*
Y64639D01*
X-132300D01*
Y218239D01*
X-129800D01*
Y241279D01*
X-144800D01*
G37*
G36*
G01X-164800Y41599D02*
Y64639D01*
X-104800D01*
Y41599D01*
X-164800D01*
G37*
G36*
G01Y218239D02*
Y241279D01*
X-104800D01*
Y218239D01*
X-164800D01*
G37*
G36*
G01X4100Y4100D02*
Y24100D01*
X24100D01*
Y4100D01*
X4100D01*
G37*
G36*
G01Y251500D02*
Y271500D01*
X24100D01*
Y251500D01*
X4100D01*
G37*
G36*
G01X251500Y4100D02*
Y24100D01*
X271500D01*
Y4100D01*
X251500D01*
G37*
G54D10*
X-116150Y370800D03*
X14100Y14100D03*
Y261500D03*
X261500Y14100D03*
G54D11*
X-116150Y420800D03*
X26400Y105300D03*
Y115300D03*
X110000Y80000D03*
Y90000D03*
Y100000D03*
Y110000D03*
Y120000D03*
Y130000D03*
Y140000D03*
Y150000D03*
X130000Y190000D03*
X120000D03*
X140000Y90000D03*
Y80000D03*
Y120000D03*
Y110000D03*
Y100000D03*
Y150000D03*
Y140000D03*
Y130000D03*
X190000Y180000D03*
Y190000D03*
X236100Y151600D03*
Y161600D03*
G54D12*
X-116150Y395800D03*
X50000Y60000D03*
Y120000D03*
Y100000D03*
Y160000D03*
X80000Y80000D03*
Y90000D03*
X105000Y225000D03*
X160000Y120000D03*
X145000Y225000D03*
X200000Y120000D03*
G54D13*
X-116150Y445800D03*
X222500Y115000D03*
Y120000D03*
Y125000D03*
G54D14*
X-116150Y470800D03*
X100000Y145000D03*
Y125000D03*
X125000Y150000D03*
X130000Y145000D03*
X125000Y162500D03*
X130000Y167500D03*
X140000Y120000D03*
X150000Y115000D03*
Y127000D03*
G54D15*
X14100Y14100D03*
D03*
Y261500D03*
D03*
X261500Y14100D03*
D03*
G54D16*
X26400Y105300D03*
D03*
Y115300D03*
D03*
X110000Y80000D03*
D03*
Y90000D03*
D03*
Y100000D03*
D03*
Y110000D03*
D03*
Y120000D03*
D03*
Y130000D03*
D03*
Y140000D03*
D03*
Y150000D03*
D03*
X130000Y190000D03*
D03*
X120000D03*
D03*
X140000Y90000D03*
D03*
Y80000D03*
D03*
Y120000D03*
D03*
Y110000D03*
D03*
Y100000D03*
D03*
Y150000D03*
D03*
Y140000D03*
D03*
Y130000D03*
D03*
X190000Y180000D03*
D03*
Y190000D03*
D03*
X236100Y151600D03*
D03*
Y161600D03*
D03*
G54D17*
X50000Y60000D03*
D03*
Y120000D03*
D03*
Y100000D03*
D03*
Y160000D03*
D03*
X80000Y80000D03*
D03*
Y90000D03*
D03*
X105000Y225000D03*
D03*
X160000Y120000D03*
D03*
X145000Y225000D03*
D03*
X200000Y120000D03*
D03*
G54D18*
X100000Y145000D03*
D03*
Y125000D03*
D03*
X125000Y150000D03*
D03*
X130000Y145000D03*
D03*
X125000Y162500D03*
D03*
X130000Y167500D03*
D03*
X140000Y120000D03*
D03*
X150000Y115000D03*
D03*
Y127000D03*
D03*
G54D19*
X222500Y115000D03*
D03*
Y120000D03*
D03*
Y125000D03*
D03*
M02*
