M48
INCH,TZ
T01C.013
T02C.031
T03C.036
T04C.042
T05C.125
;LEADER: 12 
;HEADER: 
;CODE  : ASCII 
;FILE  : PCAD - VIBRATION SENSOR-1-2.drl for board C:/USERS/ADRIA/DESKTOP/PROIECT CAD/PROIECT CAD/allegro/#Taaaaag18948.tmp ... layers TOP and BOTTOM
;T01 Holesize 1. = 13.000000 Tolerance = +0.000000/-0.000000 PLATED MILS Quantity = 9
;T02 Holesize 2. = 31.000000 Tolerance = +0.000000/-0.000000 PLATED MILS Quantity = 3
;T03 Holesize 3. = 36.000000 Tolerance = +0.000000/-0.000000 PLATED MILS Quantity = 24
;T04 Holesize 4. = 42.000000 Tolerance = +0.000000/-0.000000 PLATED MILS Quantity = 10
;T05 Holesize 5. = 125.000000 Tolerance = +0.000000/-0.000000 NON_PLATED MILS Quantity = 3
%
G90
T01
X100000Y125000
Y145000
X130000Y167500
X125000Y162500
Y150000
X130000Y145000
X140000Y120000
X150000Y115000
Y127000
T02
X222500Y115000
R02Y5000
T03
X26400Y105300
Y115300
X110000Y150000
R07Y-10000
X140000
R07Y10000
X120000Y190000
X130000
X190000
Y180000
X236100Y161600
Y151600
T04
X50000Y60000
X80000Y80000
Y90000
X50000Y100000
Y120000
Y160000
X105000Y225000
X145000
X160000Y120000
X200000
T05
X14100Y14100
X261500
X14100Y261500
M30
