G04 ================== begin FILE IDENTIFICATION RECORD ==================*
G04 Layout Name:  PCAD - VIBRATION SENSOR.brd*
G04 Film Name:    SILK_TOP*
G04 File Format:  Gerber RS274X*
G04 File Origin:  Cadence Allegro 17.2-S025*
G04 Origin Date:  Sat Jan 11 15:50:56 2025*
G04 *
G04 Layer:  ROUTE KEEPIN/ALL*
G04 Layer:  REF DES/SILKSCREEN_TOP*
G04 Layer:  PACKAGE GEOMETRY/SILKSCREEN_TOP*
G04 Layer:  BOARD GEOMETRY/SILKSCREEN_TOP*
G04 *
G04 Offset:    (0.00 0.00)*
G04 Mirror:    No*
G04 Mode:      Positive*
G04 Rotation:  0*
G04 FullContactRelief:  No*
G04 UndefLineWidth:     10.00*
G04 ================== end FILE IDENTIFICATION RECORD ====================*
%FSLAX25Y25*MOIN*%
%IR0*IPPOS*OFA0.00000B0.00000*MIA0B0*SFA1.00000B1.00000*%
%ADD10C,.01*%
%ADD11C,.008*%
G75*
%LPD*%
G75*
G54D10*
G01X15000Y15000D02*
Y260600D01*
X260600D01*
Y15000D01*
X15000D01*
G01X44117Y75500D02*
Y72400D01*
X43158D01*
X42852Y72555D01*
X42660Y72762D01*
X42583Y73175D01*
X42660Y73588D01*
X42890Y73847D01*
X43158Y74002D01*
X44117D01*
G01X43158D02*
X42583Y75500D01*
G01X40978Y72917D02*
X40748Y72607D01*
X40480Y72452D01*
X40173Y72400D01*
X39790Y72503D01*
X39522Y72762D01*
X39445Y73072D01*
X39483Y73382D01*
X39637Y73640D01*
X40403Y74157D01*
X40748Y74518D01*
X40978Y75035D01*
X41055Y75500D01*
X39445D01*
G01X31900Y135917D02*
X35000D01*
Y134997D01*
X34845Y134690D01*
X34483Y134460D01*
X34070Y134383D01*
X33657Y134460D01*
X33347Y134652D01*
X33192Y134997D01*
Y135917D01*
G01X35000Y132510D02*
Y131590D01*
G01Y132050D02*
X31900D01*
G01Y132510D02*
Y131590D01*
G01Y128183D02*
Y129717D01*
X35000D01*
Y128183D01*
G01X33502Y128797D02*
Y129717D01*
G01X35000Y126578D02*
Y125122D01*
X31900Y126578D01*
Y125122D01*
G01Y122750D02*
X31952Y123057D01*
X32158Y123325D01*
X32468Y123555D01*
X32830Y123708D01*
X33243Y123785D01*
X33657D01*
X34070Y123708D01*
X34432Y123555D01*
X34742Y123325D01*
X34948Y123057D01*
X35000Y122750D01*
X34948Y122443D01*
X34742Y122175D01*
X34432Y121945D01*
X34070Y121792D01*
X33657Y121715D01*
X33243D01*
X32830Y121792D01*
X32468Y121945D01*
X32158Y122175D01*
X31952Y122443D01*
X31900Y122750D01*
G01X32933Y120148D02*
Y119152D01*
G01X32313Y117355D02*
X32055Y117048D01*
X31900Y116703D01*
Y116397D01*
X32055Y116090D01*
X32313Y115860D01*
X32675Y115745D01*
X33037Y115822D01*
X33347Y116013D01*
X33553Y116358D01*
X33657Y116818D01*
X33863Y117087D01*
X34225Y117202D01*
X34587Y117125D01*
X34845Y116933D01*
X35000Y116665D01*
Y116397D01*
X34897Y116128D01*
X34638Y115898D01*
G01X31900Y112683D02*
Y114217D01*
X35000D01*
Y112683D01*
G01X33502Y113297D02*
Y114217D01*
G01X31900Y111232D02*
X35000D01*
X31900Y109468D01*
X35000D01*
G01X32313Y108055D02*
X32055Y107748D01*
X31900Y107403D01*
Y107097D01*
X32055Y106790D01*
X32313Y106560D01*
X32675Y106445D01*
X33037Y106522D01*
X33347Y106713D01*
X33553Y107058D01*
X33657Y107518D01*
X33863Y107787D01*
X34225Y107902D01*
X34587Y107825D01*
X34845Y107633D01*
X35000Y107365D01*
Y107097D01*
X34897Y106828D01*
X34638Y106598D01*
G01X31900Y104150D02*
X31952Y104457D01*
X32158Y104725D01*
X32468Y104955D01*
X32830Y105108D01*
X33243Y105185D01*
X33657D01*
X34070Y105108D01*
X34432Y104955D01*
X34742Y104725D01*
X34948Y104457D01*
X35000Y104150D01*
X34948Y103843D01*
X34742Y103575D01*
X34432Y103345D01*
X34070Y103192D01*
X33657Y103115D01*
X33243D01*
X32830Y103192D01*
X32468Y103345D01*
X32158Y103575D01*
X31952Y103843D01*
X31900Y104150D01*
G01Y101817D02*
X35000D01*
Y100858D01*
X34845Y100552D01*
X34638Y100360D01*
X34225Y100283D01*
X33812Y100360D01*
X33553Y100590D01*
X33398Y100858D01*
Y101817D01*
G01Y100858D02*
X31900Y100283D01*
G01X21400Y120300D02*
X31400D01*
Y100300D01*
X21400D01*
Y120300D01*
G01X44117Y135500D02*
Y132400D01*
X43158D01*
X42852Y132555D01*
X42660Y132762D01*
X42583Y133175D01*
X42660Y133588D01*
X42890Y133847D01*
X43158Y134002D01*
X44117D01*
G01X43158D02*
X42583Y135500D01*
G01X40250D02*
Y132400D01*
X40710Y133020D01*
G01Y135500D02*
X39790D01*
G01X55000Y94000D02*
Y66000D01*
X45000D01*
Y94000D01*
X55000D01*
G01X70157Y72817D02*
X70537Y72567D01*
X70980Y72400D01*
X71487D01*
X72057Y72650D01*
X72500Y73067D01*
X72817Y73567D01*
X73070Y74400D01*
X73133Y75150D01*
X73007Y75900D01*
X72817Y76400D01*
X72437Y76900D01*
X71993Y77233D01*
X71550Y77400D01*
X71107D01*
X70663Y77233D01*
X70283Y76983D01*
X69967Y76650D01*
G01X66450Y77400D02*
Y72400D01*
X67210Y73400D01*
G01Y77400D02*
X65690D01*
G01X55000Y154000D02*
Y126000D01*
X45000D01*
Y154000D01*
X55000D01*
G01X85000Y95000D02*
Y75000D01*
X75000D01*
Y95000D01*
X85000D01*
G01X114000Y159000D02*
X120000D01*
X122500Y156250D01*
X127500D01*
X130000Y159000D01*
X136000D01*
Y71500D01*
X114000D01*
Y159000D01*
G01X135000Y190000D02*
G03I-10000J0D01*
G01X129500Y219117D02*
X132600D01*
Y218158D01*
X132445Y217852D01*
X132238Y217660D01*
X131825Y217583D01*
X131412Y217660D01*
X131153Y217890D01*
X130998Y218158D01*
Y219117D01*
G01Y218158D02*
X129500Y217583D01*
G01X130120Y216093D02*
X129758Y215863D01*
X129552Y215557D01*
X129500Y215212D01*
X129552Y214905D01*
X129810Y214598D01*
X130120Y214407D01*
X130430Y214368D01*
X130792Y214445D01*
X131050Y214713D01*
X131153Y214982D01*
Y215327D01*
G01Y214982D02*
X131308Y214752D01*
X131567Y214560D01*
X131877Y214483D01*
X132187Y214560D01*
X132445Y214752D01*
X132600Y215097D01*
X132548Y215442D01*
X132342Y215787D01*
G01X111000Y230000D02*
X139000D01*
Y220000D01*
X111000D01*
Y230000D01*
G01X146640Y142500D02*
X148160D01*
G01X147400D02*
Y137500D01*
G01X146640D02*
X148160D01*
G01X153893Y142083D02*
X153513Y142333D01*
X153070Y142500D01*
X152563D01*
X151993Y142250D01*
X151550Y141833D01*
X151233Y141333D01*
X150980Y140500D01*
X150917Y139750D01*
X151043Y139000D01*
X151233Y138500D01*
X151613Y138000D01*
X152057Y137667D01*
X152500Y137500D01*
X152943D01*
X153387Y137667D01*
X153767Y137917D01*
X154083Y138250D01*
G01X157600Y137500D02*
Y142500D01*
X156840Y141500D01*
G01Y137500D02*
X158360D01*
G01X138583Y211157D02*
X138833Y211537D01*
X139000Y211980D01*
Y212487D01*
X138750Y213057D01*
X138333Y213500D01*
X137833Y213817D01*
X137000Y214070D01*
X136250Y214133D01*
X135500Y214007D01*
X135000Y213817D01*
X134500Y213437D01*
X134167Y212993D01*
X134000Y212550D01*
Y212107D01*
X134167Y211663D01*
X134417Y211283D01*
X134750Y210967D01*
G01X138167Y208653D02*
X138667Y208273D01*
X138917Y207830D01*
X139000Y207323D01*
X138833Y206690D01*
X138417Y206247D01*
X137917Y206120D01*
X137417Y206183D01*
X137000Y206437D01*
X136167Y207703D01*
X135583Y208273D01*
X134750Y208653D01*
X134000Y208780D01*
Y206120D01*
G01X184500Y114117D02*
X187600D01*
Y113158D01*
X187445Y112852D01*
X187238Y112660D01*
X186825Y112583D01*
X186412Y112660D01*
X186153Y112890D01*
X185998Y113158D01*
Y114117D01*
G01Y113158D02*
X184500Y112583D01*
G01Y109790D02*
X187600D01*
X185378Y111208D01*
Y109292D01*
G01X166000Y125000D02*
X194000D01*
Y115000D01*
X166000D01*
Y125000D01*
G01X185000Y195000D02*
X195000D01*
Y175000D01*
X185000D01*
Y195000D01*
G01X197153Y207993D02*
X197308Y207840D01*
X197567Y207725D01*
X197928Y207648D01*
X198238Y207725D01*
X198445Y207878D01*
X198600Y208147D01*
Y209182D01*
X195500D01*
Y207917D01*
X195707Y207648D01*
X196017Y207495D01*
X196378Y207418D01*
X196740Y207495D01*
X197050Y207725D01*
X197153Y207993D01*
Y209182D01*
G01X198600Y206043D02*
X196378D01*
X195913Y205890D01*
X195603Y205583D01*
X195500Y205200D01*
X195603Y204817D01*
X195913Y204510D01*
X196378Y204357D01*
X198600D01*
G01Y202100D02*
X195500D01*
G01X198600Y202982D02*
Y201218D01*
G01Y199000D02*
X195500D01*
G01X198600Y199882D02*
Y198118D01*
G01X195500Y195900D02*
X195552Y196207D01*
X195758Y196475D01*
X196068Y196705D01*
X196430Y196858D01*
X196843Y196935D01*
X197257D01*
X197670Y196858D01*
X198032Y196705D01*
X198342Y196475D01*
X198548Y196207D01*
X198600Y195900D01*
X198548Y195593D01*
X198342Y195325D01*
X198032Y195095D01*
X197670Y194942D01*
X197257Y194865D01*
X196843D01*
X196430Y194942D01*
X196068Y195095D01*
X195758Y195325D01*
X195552Y195593D01*
X195500Y195900D01*
G01Y193682D02*
X198600D01*
X195500Y191918D01*
X198600D01*
G01X196533Y190198D02*
Y189202D01*
G01X198342Y185757D02*
X198497Y185987D01*
X198600Y186255D01*
Y186562D01*
X198445Y186907D01*
X198187Y187175D01*
X197877Y187367D01*
X197360Y187520D01*
X196895Y187558D01*
X196430Y187482D01*
X196120Y187367D01*
X195810Y187137D01*
X195603Y186868D01*
X195500Y186600D01*
Y186332D01*
X195603Y186063D01*
X195758Y185833D01*
X195965Y185642D01*
G01X195500Y182733D02*
Y184267D01*
X198600D01*
Y182733D01*
G01X197102Y183347D02*
Y184267D01*
G01X198600Y181167D02*
X195500D01*
Y179633D01*
G01X198600Y178067D02*
X195500D01*
Y176533D01*
G01X231400Y111910D02*
X238900D01*
G01X231400Y109763D02*
Y114057D01*
G01X238900Y119410D02*
X231400D01*
X232900Y118290D01*
G01X238900D02*
Y120530D01*
G01X229980Y146483D02*
X230290Y146675D01*
X230497Y146905D01*
X230600Y147173D01*
X230497Y147480D01*
X230290Y147710D01*
X229980Y147940D01*
X229567Y148017D01*
X227500D01*
G01X230600Y150350D02*
X227500D01*
X228120Y149890D01*
G01X230600D02*
Y150810D01*
G01X241100Y146600D02*
X231100D01*
Y166600D01*
X241100D01*
Y146600D01*
G54D11*
G01X212810Y124010D02*
X212010Y120000D01*
G01D02*
X212810Y115990D01*
G01D02*
X215080Y112580D01*
G01D02*
X218490Y110310D01*
G01D02*
X222500Y109510D01*
G01Y130490D02*
X218490Y129690D01*
G01D02*
X215080Y127420D01*
G01D02*
X212810Y124010D01*
G01X229920Y112580D02*
Y127420D01*
G01X222500Y109510D02*
X226510Y110310D01*
G01D02*
X229920Y112580D01*
G01D02*
X230000Y112660D01*
G01X229920Y127420D02*
X226510Y129690D01*
G01D02*
X222500Y130490D01*
M02*
